mtllib model.mtl
o object_0
g object_0
usemtl object_0
v -1 1 -1
v -1 1 1
v -1 -1 -1
v -1 -1 1
v -1 1 1
v -1 1 -1
v 1 1 1
v 1 1 -1
v 1 -1 -1
v -1 -1 -1
v 1 -1 -1
v 1 -1 1
v 1 1 -1
v 1 1 1
v -1 -1 -1
v -1 -1 1
v 1 -1 -1
v 1 -1 1
v 1 -1 1
v -1 -1 1
v 1 1 1
v -1 1 1
vn 0.578661 -0.577328 0.576059
vn 0.577995 -0.577995 -0.576059
vn 0.578661 0.577328 0.576059
vn 0.577995 0.577995 -0.576059
vn 0.577995 -0.577995 -0.576059
vn 0.578661 -0.577328 0.576059
vn -0.577995 -0.577995 -0.576059
vn -0.575991 -0.579991 0.576059
vn -0.575991 0.579991 0.576059
vn 0.578661 0.577328 0.576059
vn -0.575991 0.579991 0.576059
vn -0.577995 0.577995 -0.576059
vn -0.575991 -0.579991 0.576059
vn -0.577995 -0.577995 -0.576059
vn 0.578661 0.577328 0.576059
vn 0.577995 0.577995 -0.576059
vn -0.575991 0.579991 0.576059
vn -0.577995 0.577995 -0.576059
vn -0.577995 0.577995 -0.576059
vn 0.577995 0.577995 -0.576059
vn -0.577995 -0.577995 -0.576059
vn 0.577995 -0.577995 -0.576059
vt 0.25 0.333333
vt 0.5 0.333333
vt 0.25 0
vt 0.5 0
vt 0.5 0.333333
vt 0.25 0.333333
vt 0.5 0.666666
vt 0.25 0.666666
vt 0 0.666666
vt 0 0.333333
vt 0.25 1
vt 0.5 1
vt 0.25 0.666666
vt 0.5 0.666666
vt 1 0.333333
vt 0.75 0.333333
vt 1 0.666666
vt 0.75 0.666666
vt 0.75 0.666666
vt 0.75 0.333333
vt 0.5 0.666666
vt 0.5 0.333333
f 1/1/1 2/2/2 3/3/3
f 2/2/2 4/4/4 3/3/3
f 5/5/5 6/6/6 7/7/7
f 7/7/7 6/6/6 8/8/8
f 8/8/8 6/6/6 9/9/9
f 6/6/6 10/10/10 9/9/9
f 11/11/11 12/12/12 13/13/13
f 12/12/12 14/14/14 13/13/13
f 15/15/15 16/16/16 17/17/17
f 16/16/16 18/18/18 17/17/17
f 19/19/19 20/20/20 21/21/21
f 20/20/20 22/22/22 21/21/21
